<svg xmlns="http://www.w3.org/2000/svg" width="1232" height="266" viewBox="0 0 1232 266">
<rect width="1232" height="266" fill="#111113"/>
<text x="16" y="34" fill="#eeeced" font-family="sans-serif" font-size="22" font-weight="700">Brand palette · Fraga</text>
<rect x="16" y="56" width="140" height="150" rx="12" fill="#111113" stroke="rgba(255,255,255,.12)"/>
<text x="26" y="228" fill="#eeeced" font-family="sans-serif" font-size="14" font-weight="600">Фон</text>
<text x="26" y="248" fill="#8b8a8b" font-family="monospace" font-size="13">#111113</text>
<rect x="166" y="56" width="140" height="150" rx="12" fill="#1d1d20" stroke="rgba(255,255,255,.12)"/>
<text x="176" y="228" fill="#eeeced" font-family="sans-serif" font-size="14" font-weight="600">Поверхность</text>
<text x="176" y="248" fill="#8b8a8b" font-family="monospace" font-size="13">#1d1d20</text>
<rect x="316" y="56" width="140" height="150" rx="12" fill="#eeeced" stroke="rgba(255,255,255,.12)"/>
<text x="326" y="228" fill="#eeeced" font-family="sans-serif" font-size="14" font-weight="600">Текст</text>
<text x="326" y="248" fill="#8b8a8b" font-family="monospace" font-size="13">#eeeced</text>
<rect x="466" y="56" width="140" height="150" rx="12" fill="#8b8a8b" stroke="rgba(255,255,255,.12)"/>
<text x="476" y="228" fill="#eeeced" font-family="sans-serif" font-size="14" font-weight="600">Втор. текст</text>
<text x="476" y="248" fill="#8b8a8b" font-family="monospace" font-size="13">#8b8a8b</text>
<rect x="616" y="56" width="140" height="150" rx="12" fill="#d74d4c" stroke="rgba(255,255,255,.12)"/>
<text x="626" y="228" fill="#eeeced" font-family="sans-serif" font-size="14" font-weight="600">CTA</text>
<text x="626" y="248" fill="#8b8a8b" font-family="monospace" font-size="13">#d74d4c</text>
<rect x="766" y="56" width="140" height="150" rx="12" fill="#e27f7e" stroke="rgba(255,255,255,.12)"/>
<text x="776" y="228" fill="#eeeced" font-family="sans-serif" font-size="14" font-weight="600">Акцент</text>
<text x="776" y="248" fill="#8b8a8b" font-family="monospace" font-size="13">#e27f7e</text>
<rect x="916" y="56" width="140" height="150" rx="12" fill="#d74d4c" stroke="rgba(255,255,255,.12)"/>
<text x="926" y="228" fill="#eeeced" font-family="sans-serif" font-size="14" font-weight="600">Вторичн.</text>
<text x="926" y="248" fill="#8b8a8b" font-family="monospace" font-size="13">#d74d4c</text>
<rect x="1066" y="56" width="140" height="150" rx="12" fill="#e27f7e" stroke="rgba(255,255,255,.12)"/>
<text x="1076" y="228" fill="#eeeced" font-family="sans-serif" font-size="14" font-weight="600">Ссылка</text>
<text x="1076" y="248" fill="#8b8a8b" font-family="monospace" font-size="13">#e27f7e</text>
</svg>